# xmcd
#
# Track frame offsets: 
#        150
#        22934
#        44035
#        74371
#        99418
#        118557
#        147151
#        165227
#        180634
#        196756
#        218816
#        236890
#        254202
#        276624
#
# Disc length: 3957 seconds
#
# Revision: 4
# Processed by: cddbd v1.5.2PL0 Copyright (c) Steve Scherf et al.
# Submitted via: ExactAudioCopy v0.99pb3
#
DISCID=d20f730e
DTITLE=Wolfgang Niedecken - Reinrassije Strooßekööter - Das Familienal
DTITLE=bum
DYEAR=2017
DGENRE=KölschRock
TTITLE0=Reinrassije Strooßekööter
TTITLE1=Weisste noch?
TTITLE2=Chippendale Desch
TTITLE3=Dä letzte Winter im letzte Kreech
TTITLE4=Chlodwigplatz
TTITLE5=Bahnhofskino
TTITLE6=Für 'ne Fründ
TTITLE7=Jebootsdaachspogo
TTITLE8=Suwiesu
TTITLE9=Et ess lang her
TTITLE10=Wie schön dat wöhr
TTITLE11=Wann immer du nit wiggerweiß
TTITLE12=Frankie and er
TTITLE13=Et ess wie't ess
EXTD=
EXTT0=
EXTT1=
EXTT2=
EXTT3=
EXTT4=
EXTT5=
EXTT6=
EXTT7=
EXTT8=
EXTT9=
EXTT10=
EXTT11=
EXTT12=
EXTT13=
PLAYORDER=
